<?xml version="1.0" encoding="utf-8"?>
<!-- Generator: Adobe Illustrator 23.0.2, SVG Export Plug-In . SVG Version: 6.00 Build 0)  -->
<svg version="1.1" xmlns="http://www.w3.org/2000/svg" xmlns:xlink="http://www.w3.org/1999/xlink" x="0px" y="0px"
	 viewBox="0 0 1340 710" style="enable-background:new 0 0 1340 710;" xml:space="preserve">
<style type="text/css">
	.st0{fill:#F75656;}
	.st1{fill:#FBF3E7;}
</style>
<g id="Layer_1">
	<g>
		<path class="st0" d="M558.23,171.68c0,84.81-23.78,156.62-79.43,156.62c-18.85,0-33.66-5.83-43.98-16.16l-21.54-21.54
			c-10.32,22.89-25.13,37.7-46.67,37.7c-10.77,0-19.75-3.59-26.03-9.87l-44.88-44.88c-9.87-9.87,7.18-44.88-14.81-44.88
			c0-35.45,14.81-72.7,46.22-92l-49.36-48.91c0-52.51,22.44-78.98,58.79-87.96c0,7.18,24.23,4.94,33.66,14.36l26.93,26.93
			c7.18-26.03,21.99-32.31,48.91-41.29c0,7.18,26.48,5.38,36.35,15.26l44.88,44.88C547.01,79.68,558.23,118.27,558.23,171.68z"/>
		<path class="st0" d="M551.05,263.67c-18.4-18.4,3.59-72.7-26.48-72.7c0-60.58,36.35-101.42,96.93-110.39
			c0,10.77,38.59,6.28,53.85,21.54l43.98,43.53c17.5,17.5,26.03,41.73,26.03,72.25c0,60.58-36.35,110.39-96.93,110.39
			c-21.54,0-39.49-7.18-52.95-20.64L551.05,263.67z"/>
		<path class="st0" d="M840.5,318.42l-43.98-43.53c-7.63-7.18-10.32-26.03-15.26-46.22c0-35.45,23.78-72.7,38.15-100.07
			l-41.29-40.84c0-52.51,23.33-87.96,59.68-87.96c0,8.08,22.89,4.49,31.41,13.01l43.53,43.53c17.05,17.05,28.72,52.06,28.72,104.11
			c0,78.08-26.48,167.84-75.39,167.84C855.31,328.29,846.78,324.7,840.5,318.42z"/>
		<path class="st0" d="M961.66,313.04l-45.77-45.32c-12.56-12.12-9.42-30.07-17.5-48.91c0.9-27.37,15.26-45.32,42.18-70.9
			l-25.13-25.13c-8.98-8.98-4.49-20.19-12.12-34.11c1.35-32.76,31.41-44.43,64.62-56.09l44.87,44.88l-0.45,10.32h22.44l44.88,44.88
			c-1.35,40.39-33.66,52.06-67.76,52.06h-2.69l-0.45,9.87c-0.45,10.32-0.45,18.85-0.45,26.48h13.46l44.88,44.88
			c-1.35,36.35-26.03,62.38-62.38,62.38C985.45,328.29,971.53,322.91,961.66,313.04z"/>
		<path class="st0" d="M57.41,650.95l-44.88-44.88c-8.53-8.53-12.57-21.09-12.12-35.45c1.35-25.58,19.3-34.55,45.32-51.16
			l-21.09-21.09c-11.67-11.67-8.53-27.37-16.6-45.32c1.35-19.75,12.56-26.93,31.86-48.02l-25.58-25.58
			c10.32-61.48,26.48-87.96,60.58-87.96c15.26,8.98,27.82,4.94,36.8,13.91l34.11,34.11l1.35-42.63
			c24.23,13.91,45.32,8.53,60.58,23.78l43.08,43.08c14.36,14.36,21.99,31.86,21.09,53.4c-1.35,38.14-19.3,68.21-35.9,107.25
			l11.22,11.22c15.71,15.26,23.34,35.45,22.89,58.34c-0.9,42.18-22.89,69.11-57.44,69.11c-17.5,0-32.31-5.38-42.18-15.26
			l-22.44-21.99c-10.32,25.58-28.72,39.04-53.4,39.04C78.51,664.87,66.39,659.93,57.41,650.95z"/>
		<path class="st0" d="M253.97,555.37c-18.4-18.4,3.59-72.7-26.48-72.7c0-60.58,36.35-101.42,96.93-110.39
			c0,10.77,38.59,6.28,53.85,21.54l43.98,43.53c17.5,17.5,26.03,41.73,26.03,72.25c0,60.58-36.35,110.39-96.93,110.39
			c-21.54,0-39.49-7.18-52.95-20.64L253.97,555.37z"/>
		<path class="st0" d="M631.82,557.61c0,35.9-13.91,62.38-37.25,62.38c-9.87,0-17.5-3.59-23.34-9.42l-23.34-23.33
			c-9.42,19.3-24.68,32.76-47.12,32.76c-13.46,0-24.23-4.49-32.31-12.57l-45.77-45.77c-8.98-9.87,8.08-39.49-13.01-39.49
			c0.9-24.23,13.46-42.63,30.52-55.65l-20.19-29.17c-8.53-12.12-13.46-30.07-13.46-57.89h87.06l20.64,20.64l0.9-22.89
			c22.44,10.32,39.94,7.18,51.61,18.85l44.88,44.88c9.87,9.87,14.81,23.78,14.36,41.29c-0.9,18.85-7.18,36.35-19.3,50.26
			L631.82,557.61z"/>
		<path class="st0" d="M793.82,557.61c0,35.9-13.91,62.38-41.73,62.38c-13.01,0-21.99-4.49-29.17-11.67l-44.87-44.88
			c-4.94-4.94,0.45-11.67-10.77-18.85c-11.67-1.79-19.75-6.28-25.58-12.12l-44.43-44.43c-8.97-8.98-7.18-21.54-8.53-34.11
			c6.73-9.42,8.53-7.63,20.19-21.54l-16.15-16.16c-8.08-8.08-4.04-20.64-12.12-35.9c1.35-33.66,29.17-44.43,61.48-56.09l44.88,44.88
			l-0.45,13.91c14.81,12.12,26.93,8.98,35,17.05l43.53,43.53c9.42,8.97,13.91,19.75,13.91,33.66v61.03L793.82,557.61z"/>
		<path class="st0" d="M936.98,556.27c-0.45,38.59-26.92,63.72-69.56,63.72c-20.19,0-35.9-6.73-47.12-17.95l-44.87-44.88
			c-11.22-11.22-6.73-26.48-14.81-44.43h16.61v-14.81l-25.58-25.13c-8.53-8.53-6.28-20.64-8.08-32.76
			c3.59-15.71,17.05-18.4,41.73-25.13c14.81-30.07,29.62-33.66,59.68-42.63c17.95,8.98,32.31,4.94,40.84,13.01l45.32,45.32
			c6.28,6.28,9.87,14.81,9.87,25.58c0,19.3-10.32,36.35-34.11,42.63C923.96,514.98,936.98,534.73,936.98,556.27z"/>
		<path class="st0" d="M1079.23,536.97l20.19,20.64c-5.39,36.8-34.11,62.38-74.04,62.38c-21.99,0-39.94-7.18-53.85-21.09
			l-44.88-44.88c-13.01-13.01-16.6-40.39-25.58-71.35c0-61.03,36.8-86.16,71.35-107.25l11.22,11.22
			c8.53-9.42,19.75-5.38,32.31-14.36c13.46,8.98,25.13,5.38,34.1,13.46l44.88,44.43c10.32,10.32,16.6,26.48,16.6,45.32
			C1111.54,506.9,1098.53,528.44,1079.23,536.97z"/>
		<path class="st0" d="M1207.58,557.61c0,35.9-13.91,62.38-41.74,62.38c-12.12,0-21.54-4.04-28.27-10.77l-44.87-44.88
			c-11.67-11.67-11.22-31.41-10.77-50.26l3.59-218.54c20.19,9.42,36.8,7.63,48.91,19.75l45.32,44.88
			c15.71,15.71,24.23,40.84,22.89,72.7c-1.35,37.7-11.22,66.42-24.68,88.85L1207.58,557.61z"/>
		<path class="st0" d="M1182,695.38l-45.77-45.77c-10.77-10.77,6.73-27.37-12.57-44.88h60.58l2.24-309.19
			c18.4,9.87,33.66,6.73,44.88,17.95l45.77,45.77c17.5,17.5,26.03,45.77,24.23,85.71c-0.9,26.48-6.73,51.61-16.16,75.39l42.18,41.73
			c9.42,9.42,13.01,28.72,12.56,50.71h-92.44l17.95,17.5c8.53,8.53,13.01,19.75,12.12,32.76c-1.35,26.92-21.54,46.67-56.1,46.67
			C1203.99,709.74,1190.98,704.36,1182,695.38z"/>
	</g>
	<g>
		<path class="st1" d="M513.36,126.8c0,84.82-23.78,156.62-79.43,156.62c-33.66,0-54.75-17.95-61.03-50.26
			c-10.32,30.07-26.03,50.26-51.16,50.26c-26.03,0-40.84-20.19-40.84-54.75c0-61.93,46.22-130.14,99.62-140.91H277.76
			c0-52.51,22.44-87.96,58.79-87.96c31.41,0,50.26,26.93,55.65,70.9c4.04-43.98,17.95-70.9,53.85-70.9
			C488.23-0.2,513.36,46.47,513.36,126.8z M433.03,211.17c0-100.07-0.9-122.96-39.94-123.41c0.45,10.32,0,21.09-0.9,32.31
			c-2.69,32.31-6.28,64.17-13.01,91.1H433.03z"/>
		<path class="st1" d="M524.58,190.97c0-60.58,36.35-110.39,96.93-110.39c47.12,0,78.98,36.35,78.98,92.44
			c0,60.58-36.35,110.39-96.93,110.39C556.44,283.42,524.58,247.07,524.58,190.97z M641.25,221.04l0.45-14.36
			c2.69-79.43-13.01-83.02-57.89-83.02l-0.45,97.38H641.25z"/>
		<path class="st1" d="M893.9,115.58c0,78.08-23.78,167.84-72.7,167.84c-26.03,0-39.94-20.19-39.94-54.75
			c0-61.93,46.22-130.14,99.62-140.91H778.12c0-52.51,23.33-87.96,59.68-87.96C875.95-0.2,893.9,39.29,893.9,115.58z"/>
		<path class="st1" d="M999.8,221.04h21.99c-1.35,36.35-26.03,62.38-62.38,62.38c-42.63,0-61.93-30.52-61.03-64.62
			c0.9-32.76,21.09-65.07,59.24-79.43c-35.45-2.69-55.65-21.54-54.3-50.71c1.35-32.76,26.93-53.4,64.62-56.09l-1.8,55.2h68.66
			c-1.35,40.39-33.66,52.05-67.76,52.05h-2.69l-0.45,9.87C961.66,209.82,963.9,221.04,999.8,221.04z"/>
		<path class="st1" d="M148.51,466.96c48.02,5.39,77.63,39.04,76.74,82.12c-0.9,42.18-22.89,69.11-57.44,69.11
			S111.27,598,109.02,563c-8.98,37.25-29.17,56.99-59.24,56.99c-31.86,0-50.26-20.19-49.36-49.36c1.79-31.41,28.72-51.61,64.62-54.3
			c-34.55-2.24-58.79-29.17-56.99-63.28c2.69-39.49,43.98-63.28,108.15-73.6H14.33c1.35-61.48,26.48-87.96,60.58-87.96
			c34.55,0,54.3,24.68,52.95,66.87c-1.79,51.61-39.04,87.06-83.02,92.89h97.83l4.49-154.37c48.91,1.35,81.22,32.76,79.88,75.39
			C225.25,417.15,201.02,450.81,148.51,466.96z M139.54,558.51l2.69-98.28c-9.42,42.63-38.14,54.75-68.66,56.1
			c-0.9,35.9,1.8,42.18,22.89,42.18H139.54z"/>
		<path class="st1" d="M227.49,482.67c0-60.58,36.35-110.39,96.93-110.39c47.12,0,78.98,36.35,78.98,92.44
			c0,60.58-36.35,110.39-96.93,110.39C259.36,575.11,227.49,538.76,227.49,482.67z M344.17,512.74l0.45-14.36
			c2.69-79.43-13.01-83.02-57.89-83.02l-0.45,97.38H344.17z"/>
		<path class="st1" d="M586.95,512.74c0,35.9-13.91,62.38-37.25,62.38c-26.93,0-38.59-27.82-39.04-56.54
			c-5.83,30.52-23.78,56.54-54.75,56.54c-29.17,0-47.12-21.54-46.22-52.95c1.35-38.14,26.03-62.38,67.31-73.6h-22.89
			c-39.49,0-47.57-22.44-47.57-69.11h87.06l-17.05,133.28h34.11l4.49-135.52c42.63,2.24,67.31,22.89,65.97,60.13
			c-1.35,34.11-22.44,64.17-60.13,75.39H586.95z"/>
		<path class="st1" d="M748.95,512.74c0,35.9-13.91,62.38-41.74,62.38c-33.66,0-44.43-30.96-43.53-61.03l4.04-128.34
			c-5.38,20.19-15.26,34.55-30.96,39.94l-11.67,74.49c-30.96-4.49-41.73-25.13-36.35-46.22c3.14-13.01,13.91-21.99,35.9-26.03h-2.69
			c-24.68,0-42.63-18.4-41.29-47.57c1.35-33.66,29.17-53.4,61.48-56.09l-2.24,55.2h9.42c55.2,0,84.81,17.95,84.81,52.95
			c0,32.76-22.89,63.27-61.93,80.33H748.95z"/>
		<path class="st1" d="M892.1,511.39c-0.45,38.59-26.93,63.72-69.56,63.72c-39.49,0-64.17-25.58-61.93-62.38H875.5
			c-70.9-5.38-85.71-39.04-85.71-91.1l-9.87,63.72c-30.96-4.49-41.29-24.23-36.35-45.32c3.59-15.71,17.05-27.37,41.73-25.13
			c5.83-30.07,29.62-42.63,59.68-42.63c31.41,0,51.16,13.46,51.16,39.04c0,19.3-10.32,36.35-34.11,42.63
			C879.09,470.11,892.1,489.85,892.1,511.39z M859.34,451.71v-36.35h-63.73C810.88,418.95,837.8,432.41,859.34,451.71z"/>
		<path class="st1" d="M971.08,512.74h83.47c-5.38,36.8-34.1,62.38-74.04,62.38c-47.57,0-79.43-36.35-79.43-92.44
			c0-61.03,36.8-99.62,71.35-107.25v30.52c7.18-21.54,24.23-33.66,43.53-33.66c30.07,0,50.71,23.34,50.71,58.34
			c0,41.29-21.99,65.07-51.61,65.07c-21.09,0-35.9-10.32-42.63-25.58L971.08,512.74z M972.43,415.36v48.91h42.18
			C1016.86,422.99,1012.37,415.36,972.43,415.36z"/>
		<path class="st1" d="M1162.71,512.74c0,35.9-13.91,62.38-41.73,62.38c-33.66,0-44.43-30.96-43.53-61.03l8.08-218.54
			c47.12,1.35,74.04,36.35,72.25,92.44c-2.69,67.76-38.59,104.56-72.7,124.75H1162.71z"/>
		<path class="st1" d="M1295.09,567.93H1182.9c30.96,5.83,51.16,22.89,49.81,50.26c-1.35,26.92-21.54,46.67-56.1,46.67
			c-39.49,0-56.99-28.27-52.95-60.13h51.61l11.22-309.19c47.12,2.69,72.7,38.14,70.01,104.56c-2.24,56.54-25.58,107.25-62.38,149.44
			c21.99-20.19,51.16-38.14,72.25-38.14C1288.81,511.39,1295.98,536.52,1295.09,567.93z"/>
	</g>
</g>
<g id="Layer_2">
</g>
</svg>
