<?xml version="1.0" standalone="no"?>
<!DOCTYPE svg PUBLIC "-//W3C//DTD SVG 20010904//EN"
 "http://www.w3.org/TR/2001/REC-SVG-20010904/DTD/svg10.dtd">
<svg version="1.0" xmlns="http://www.w3.org/2000/svg"
 width="216.000000pt" height="216.000000pt" viewBox="0 0 216.000000 216.000000"
 preserveAspectRatio="xMidYMid meet">
<metadata>
Created by potrace 1.11, written by Peter Selinger 2001-2013
</metadata>
<g transform="translate(0.000000,216.000000) scale(0.100000,-0.100000)"
fill="#000000" stroke="none">
<path d="M1329 2014 c-49 -51 -134 -104 -182 -113 -77 -14 -159 14 -216 73
-19 20 -40 36 -47 36 -7 0 -28 -26 -48 -58 -47 -78 -105 -137 -149 -151 -20
-7 -71 -13 -114 -14 l-78 -2 0 -105 c0 -82 -4 -112 -18 -139 -20 -36 -102
-122 -154 -162 -18 -13 -33 -32 -33 -41 0 -10 20 -37 44 -61 89 -90 107 -215
48 -341 -36 -78 -33 -84 57 -85 79 -1 159 -23 211 -59 54 -37 54 -34 -23 -122
-13 -14 -45 -56 -72 -95 -27 -38 -53 -71 -57 -73 -5 -2 -8 -8 -8 -14 0 -5 -10
-18 -21 -27 -32 -25 -19 -51 69 -140 82 -83 149 -134 232 -176 61 -31 92 -28
117 13 10 15 21 29 25 33 20 14 11 132 -11 149 -3 3 -13 18 -21 35 -15 29 -33
54 -58 81 -17 18 -28 74 -13 74 6 0 11 5 11 11 0 20 55 71 98 90 28 12 57 17
86 14 61 -6 150 -41 188 -75 18 -16 42 -37 54 -47 11 -10 23 -29 27 -43 13
-57 41 -159 59 -218 11 -35 17 -70 14 -78 -19 -50 37 -57 170 -19 164 47 253
89 280 131 17 26 15 100 -4 147 -21 51 -88 63 -204 36 -43 -10 -97 -5 -84 8 3
4 1 11 -4 18 -5 6 -11 20 -13 31 -1 10 -6 25 -10 32 -5 6 -6 12 -2 12 3 0 -1
13 -9 29 -9 16 -12 31 -9 35 4 3 1 6 -4 6 -6 0 -10 8 -9 18 4 32 92 65 190 70
l88 5 -8 41 c-4 22 -7 66 -7 97 0 73 38 144 115 214 32 28 58 55 58 59 0 4
-11 22 -24 39 -31 42 -73 132 -84 182 -13 62 -4 111 53 264 22 60 11 71 -74
71 -173 0 -308 112 -343 286 -13 66 -29 69 -79 18z"/>
</g>
</svg>
